<?xml version="1.0" encoding="UTF-8"?>
<!DOCTYPE svg PUBLIC "-//W3C//DTD SVG 1.1//EN" "http://www.w3.org/Graphics/SVG/1.1/DTD/svg11.dtd">
<!-- Creator: CorelDRAW -->
<svg xmlns="http://www.w3.org/2000/svg" xml:space="preserve" width="4.23mm" height="4.0757mm" version="1.1" style="shape-rendering:geometricPrecision; text-rendering:geometricPrecision; image-rendering:optimizeQuality; fill-rule:evenodd; clip-rule:evenodd"
viewBox="0 0 409.21 394.28"
 xmlns:xlink="http://www.w3.org/1999/xlink"
 xmlns:xodm="http://www.corel.com/coreldraw/odm/2003">
 <defs>
  <style type="text/css">
   <![CDATA[
    .fil0 {fill:#FEFEFE}
    .fil1 {fill:black}
   ]]>
  </style>
 </defs>
 <g id="Layer_x0020_1">
  <metadata id="CorelCorpID_0Corel-Layer"/>
  <rect class="fil0" y="0" width="409.21" height="394.28" rx="29.67" ry="91.82"/>
  <g id="_2659970888112">
   <path class="fil1" d="M175.77 291.99c6.67,-1.81 4.76,-5.68 9.05,-23.48 4.4,-18.27 15.69,-76.08 20.22,-83.6l26.12 107.23 48.15 0.21 -44.96 -190.08 -55.12 -0.36c-5.03,1.35 -5.12,10.86 -7.28,20.59l-15.66 72.97c-0.34,6.68 17.49,92.72 19.49,96.53z"/>
   <path class="fil1" d="M116.91 292.39l47.42 -0.02 -39.15 -190 -56.01 -0.47c5.85,31.43 14.83,65.01 22.39,96.28 3.9,16.19 7.3,31 11.42,47.45l8.57 36.56c1.55,6.59 0.91,7.7 5.37,10.21z"/>
   <path class="fil1" d="M291.75 292.17c6.32,-2.36 4.56,-5.38 8.36,-21l17.29 -72.73c7.24,-30.64 17.35,-65.95 22.64,-96.22l-56.11 -0.17c-2.47,19.6 -17.47,85.29 -15.45,97.51 1.71,10.26 20.46,88.77 23.28,92.61z"/>
  </g>
 </g>
</svg>
