<svg
      width="700"
      height="390"
      viewBox="0 0 700 390"
      fill="none"
      xmlns="http://www.w3.org/2000/svg"
      className="header__title"
    >
      <g transform="scale(2.5) translate(0, 60)" fill="#f9f9f9" id="text">
        
      <path d="M6.37 0L2.16 0L2.16-18.71L14.69-18.71L14.69-15.17L6.37-15.17L6.37-11.26L13.77-11.26L13.77-7.72L6.37-7.72L6.37 0ZM28.97-14.20L28.97-0.49Q27.95-0.19 26.32 0.07Q24.70 0.32 22.92 0.32L22.92 0.32Q21.11 0.32 19.91-0.16Q18.71-0.65 18.01-1.53Q17.31-2.40 17.01-3.62Q16.71-4.83 16.71-6.29L16.71-6.29L16.71-14.20L20.74-14.20L20.74-6.78Q20.74-4.83 21.25-3.97Q21.76-3.10 23.17-3.10L23.17-3.10Q23.60-3.10 24.08-3.15Q24.57-3.19 24.95-3.24L24.95-3.24L24.95-14.20L28.97-14.20ZM38.99-3.05L38.42 0.27Q36.67 0.24 35.57-0.11Q34.48-0.46 33.84-1.09Q33.21-1.73 32.98-2.63Q32.75-3.54 32.75-4.67L32.75-4.67L32.75-20.30L36.77-20.95L36.77-5.48Q36.77-4.94 36.85-4.51Q36.94-4.08 37.17-3.78Q37.39-3.48 37.83-3.29Q38.26-3.10 38.99-3.05L38.99-3.05ZM47.52-3.05L46.95 0.27Q45.20 0.24 44.10-0.11Q43.01-0.46 42.38-1.09Q41.74-1.73 41.51-2.63Q41.28-3.54 41.28-4.67L41.28-4.67L41.28-20.30L45.31-20.95L45.31-5.48Q45.31-4.94 45.39-4.51Q45.47-4.08 45.70-3.78Q45.93-3.48 46.36-3.29Q46.79-3.10 47.52-3.05L47.52-3.05ZM61.67-3.21L61.67-3.21Q62.56-3.21 63.14-3.36Q63.72-3.51 64.07-3.77Q64.42-4.02 64.56-4.37Q64.69-4.72 64.69-5.16L64.69-5.16Q64.69-6.08 63.83-6.68Q62.96-7.29 60.86-7.99L60.86-7.99Q59.94-8.32 59.02-8.73Q58.10-9.15 57.37-9.79Q56.65-10.42 56.19-11.33Q55.73-12.23 55.73-13.53L55.73-13.53Q55.73-14.82 56.21-15.86Q56.70-16.90 57.59-17.63Q58.48-18.36 59.75-18.75Q61.02-19.14 62.61-19.14L62.61-19.14Q64.50-19.14 65.88-18.74Q67.26-18.33 68.15-17.85L68.15-17.85L66.93-14.53Q66.15-14.93 65.19-15.24Q64.23-15.55 62.88-15.55L62.88-15.55Q61.37-15.55 60.71-15.13Q60.05-14.71 60.05-13.85L60.05-13.85Q60.05-13.34 60.29-12.99Q60.53-12.64 60.98-12.35Q61.42-12.07 62.01-11.84Q62.59-11.61 63.29-11.37L63.29-11.37Q64.75-10.83 65.83-10.30Q66.91-9.77 67.62-9.07Q68.34-8.37 68.69-7.42Q69.04-6.48 69.04-5.13L69.04-5.13Q69.04-2.51 67.20-1.07Q65.37 0.38 61.67 0.38L61.67 0.38Q60.43 0.38 59.43 0.23Q58.43 0.08 57.66-0.14Q56.89-0.35 56.34-0.59Q55.78-0.84 55.40-1.05L55.40-1.05L56.59-4.40Q57.43-3.94 58.66-3.58Q59.89-3.21 61.67-3.21ZM71.87-5.80L71.87-17.74L75.90-18.39L75.90-14.20L80.73-14.20L80.73-10.85L75.90-10.85L75.90-5.86Q75.90-4.59 76.34-3.83Q76.79-3.08 78.14-3.08L78.14-3.08Q78.79-3.08 79.47-3.20Q80.16-3.32 80.73-3.54L80.73-3.54L81.30-0.40Q80.57-0.11 79.68 0.11Q78.79 0.32 77.49 0.32L77.49 0.32Q75.84 0.32 74.76-0.12Q73.68-0.57 73.03-1.36Q72.39-2.16 72.13-3.29Q71.87-4.43 71.87-5.80L71.87-5.80ZM88.88-2.81L88.88-2.81Q89.48-2.81 90.02-2.83Q90.56-2.86 90.88-2.92L90.88-2.92L90.88-5.97Q90.64-6.02 90.15-6.08Q89.67-6.13 89.26-6.13L89.26-6.13Q88.69-6.13 88.20-6.06Q87.70-5.99 87.32-5.80Q86.94-5.62 86.72-5.29Q86.51-4.97 86.51-4.48L86.51-4.48Q86.51-3.54 87.14-3.17Q87.78-2.81 88.88-2.81ZM88.56-14.58L88.56-14.58Q90.34-14.58 91.53-14.18Q92.72-13.77 93.43-13.01Q94.15-12.26 94.45-11.18Q94.74-10.10 94.74-8.78L94.74-8.78L94.74-0.40Q93.88-0.22 92.34 0.04Q90.80 0.30 88.61 0.30L88.61 0.30Q87.24 0.30 86.12 0.05Q85.00-0.19 84.19-0.74Q83.38-1.30 82.94-2.19Q82.51-3.08 82.51-4.37L82.51-4.37Q82.51-5.62 83.01-6.48Q83.51-7.34 84.35-7.86Q85.18-8.37 86.26-8.60Q87.34-8.83 88.51-8.83L88.51-8.83Q89.29-8.83 89.90-8.76Q90.50-8.69 90.88-8.59L90.88-8.59L90.88-8.96Q90.88-9.99 90.26-10.61Q89.64-11.23 88.10-11.23L88.10-11.23Q87.07-11.23 86.08-11.08Q85.08-10.94 84.35-10.66L84.35-10.66L83.83-13.90Q84.19-14.01 84.71-14.13Q85.24-14.26 85.86-14.35Q86.48-14.45 87.17-14.51Q87.86-14.58 88.56-14.58ZM97.71-7.10L97.71-7.10Q97.71-8.64 98.21-10.00Q98.71-11.37 99.66-12.38Q100.60-13.39 101.95-13.99Q103.30-14.58 105.03-14.58L105.03-14.58Q106.16-14.58 107.11-14.38Q108.05-14.18 108.94-13.80L108.94-13.80L108.11-10.58Q107.54-10.80 106.87-10.96Q106.19-11.12 105.35-11.12L105.35-11.12Q103.57-11.12 102.69-10.02Q101.82-8.91 101.82-7.10L101.82-7.10Q101.82-5.18 102.64-4.13Q103.46-3.08 105.52-3.08L105.52-3.08Q106.24-3.08 107.08-3.21Q107.92-3.35 108.62-3.65L108.62-3.65L109.19-0.35Q108.49-0.05 107.43 0.16Q106.38 0.38 105.11 0.38L105.11 0.38Q103.17 0.38 101.76-0.20Q100.36-0.78 99.45-1.78Q98.55-2.78 98.13-4.14Q97.71-5.51 97.71-7.10ZM115.91-20.95L115.91-9.07Q116.50-9.72 117.14-10.42Q117.77-11.12 118.37-11.81Q118.96-12.50 119.49-13.12Q120.01-13.74 120.39-14.20L120.39-14.20L125.17-14.20Q123.74-12.55 122.38-11.06Q121.01-9.56 119.39-7.96L119.39-7.96Q120.20-7.24 121.07-6.22Q121.93-5.21 122.74-4.13Q123.55-3.05 124.23-1.97Q124.90-0.89 125.36 0L125.36 0L120.74 0Q120.31-0.70 119.76-1.55Q119.20-2.40 118.58-3.25Q117.96-4.10 117.27-4.89Q116.59-5.67 115.91-6.21L115.91-6.21L115.91 0L111.89 0L111.89-20.30L115.91-20.95ZM143.23-16.71L146.83-16.71Q147.15-15.61 147.54-14.22Q147.93-12.82 148.38-11.34Q148.82-9.86 149.28-8.37Q149.74-6.88 150.17-5.62L150.17-5.62Q150.52-6.99 150.89-8.61Q151.25-10.23 151.58-11.96Q151.90-13.69 152.21-15.40Q152.52-17.12 152.79-18.71L152.79-18.71L157.17-18.71Q156.22-14.01 154.99-9.18Q153.76-4.35 152.33 0L152.33 0L148.47 0Q147.53-2.59 146.64-5.44Q145.75-8.29 144.88-11.15L144.88-11.15Q144.02-8.29 143.15-5.44Q142.29-2.59 141.34 0L141.34 0L137.48 0Q136.05-4.35 134.82-9.18Q133.60-14.01 132.65-18.71L132.65-18.71L137.21-18.71Q137.48-17.12 137.81-15.40Q138.13-13.69 138.48-11.96Q138.83-10.23 139.20-8.61Q139.56-6.99 139.94-5.62L139.94-5.62Q140.43-6.94 140.89-8.42Q141.34-9.91 141.78-11.39Q142.21-12.88 142.57-14.26Q142.94-15.63 143.23-16.71L143.23-16.71ZM158.92-6.99L158.92-6.99Q158.92-8.88 159.50-10.30Q160.08-11.72 161.03-12.66Q161.97-13.61 163.20-14.09Q164.43-14.58 165.73-14.58L165.73-14.58Q168.75-14.58 170.50-12.73Q172.26-10.88 172.26-7.29L172.26-7.29Q172.26-6.94 172.23-6.52Q172.21-6.10 172.18-5.78L172.18-5.78L163.05-5.78Q163.19-4.54 164.21-3.81Q165.24-3.08 166.97-3.08L166.97-3.08Q168.07-3.08 169.14-3.28Q170.21-3.48 170.88-3.78L170.88-3.78L171.42-0.51Q171.10-0.35 170.56-0.19Q170.02-0.03 169.36 0.09Q168.70 0.22 167.94 0.30Q167.18 0.38 166.43 0.38L166.43 0.38Q164.51 0.38 163.09-0.19Q161.68-0.76 160.74-1.74Q159.81-2.73 159.37-4.08Q158.92-5.43 158.92-6.99ZM163.05-8.53L168.37-8.53Q168.34-9.04 168.20-9.53Q168.05-10.02 167.74-10.39Q167.43-10.77 166.95-11.02Q166.48-11.26 165.78-11.26L165.78-11.26Q165.10-11.26 164.62-11.03Q164.13-10.80 163.81-10.42Q163.48-10.04 163.31-9.54Q163.13-9.04 163.05-8.53L163.05-8.53ZM184.46-7.21L184.46-7.21Q184.46-11.10 181.60-11.10L181.60-11.10Q180.98-11.10 180.37-10.94Q179.77-10.77 179.39-10.53L179.39-10.53L179.39-3.21Q179.69-3.16 180.14-3.12Q180.60-3.08 181.14-3.08L181.14-3.08Q182.79-3.08 183.63-4.21Q184.46-5.35 184.46-7.21ZM188.57-7.10L188.57-7.10Q188.57-5.40 188.07-4.02Q187.57-2.65 186.62-1.67Q185.68-0.70 184.30-0.18Q182.92 0.35 181.17 0.35L181.17 0.35Q180.44 0.35 179.64 0.28Q178.85 0.22 178.08 0.11Q177.31 0 176.61-0.15Q175.91-0.30 175.36-0.46L175.36-0.46L175.36-20.30L179.39-20.95L179.39-13.88Q180.06-14.18 180.79-14.34Q181.52-14.50 182.36-14.50L182.36-14.50Q183.87-14.50 185.03-13.97Q186.19-13.45 186.97-12.47Q187.76-11.50 188.16-10.14Q188.57-8.78 188.57-7.10ZM195.75-2.89L195.75-2.89Q196.86-2.89 197.32-3.10Q197.77-3.32 197.77-3.94L197.77-3.94Q197.77-4.43 197.18-4.79Q196.59-5.16 195.37-5.62L195.37-5.62Q194.43-5.97 193.66-6.34Q192.89-6.72 192.35-7.25Q191.81-7.78 191.51-8.51Q191.21-9.23 191.21-10.26L191.21-10.26Q191.21-12.26 192.70-13.42Q194.18-14.58 196.78-14.58L196.78-14.58Q198.07-14.58 199.26-14.35Q200.45-14.12 201.15-13.85L201.15-13.85L200.45-10.72Q199.75-10.96 198.92-11.15Q198.10-11.34 197.07-11.34L197.07-11.34Q195.18-11.34 195.18-10.29L195.18-10.29Q195.18-10.04 195.26-9.86Q195.34-9.67 195.59-9.49Q195.83-9.31 196.25-9.11Q196.67-8.91 197.32-8.67L197.32-8.67Q198.64-8.18 199.50-7.71Q200.37-7.24 200.87-6.68Q201.37-6.13 201.57-5.45Q201.77-4.78 201.77-3.89L201.77-3.89Q201.77-1.78 200.19-0.70Q198.61 0.38 195.72 0.38L195.72 0.38Q193.83 0.38 192.58 0.05Q191.32-0.27 190.84-0.49L190.84-0.49L191.51-3.75Q192.54-3.35 193.62-3.12Q194.70-2.89 195.75-2.89ZM208.79-14.20L208.79 0L204.77 0L204.77-14.20L208.79-14.20ZM209.17-18.31L209.17-18.31Q209.17-17.20 208.45-16.56Q207.74-15.93 206.77-15.93L206.77-15.93Q205.79-15.93 205.08-16.56Q204.36-17.20 204.36-18.31L204.36-18.31Q204.36-19.41 205.08-20.05Q205.79-20.68 206.77-20.68L206.77-20.68Q207.74-20.68 208.45-20.05Q209.17-19.41 209.17-18.31ZM212.44-5.80L212.44-17.74L216.46-18.39L216.46-14.20L221.29-14.20L221.29-10.85L216.46-10.85L216.46-5.86Q216.46-4.59 216.90-3.83Q217.35-3.08 218.70-3.08L218.70-3.08Q219.35-3.08 220.04-3.20Q220.72-3.32 221.29-3.54L221.29-3.54L221.86-0.40Q221.13-0.11 220.24 0.11Q219.35 0.32 218.05 0.32L218.05 0.32Q216.40 0.32 215.32-0.12Q214.24-0.57 213.60-1.36Q212.95-2.16 212.69-3.29Q212.44-4.43 212.44-5.80L212.44-5.80ZM223.34-6.99L223.34-6.99Q223.34-8.88 223.92-10.30Q224.50-11.72 225.45-12.66Q226.39-13.61 227.62-14.09Q228.85-14.58 230.15-14.58L230.15-14.58Q233.17-14.58 234.93-12.73Q236.68-10.88 236.68-7.29L236.68-7.29Q236.68-6.94 236.66-6.52Q236.63-6.10 236.60-5.78L236.60-5.78L227.47-5.78Q227.61-4.54 228.64-3.81Q229.66-3.08 231.39-3.08L231.39-3.08Q232.50-3.08 233.56-3.28Q234.63-3.48 235.30-3.78L235.30-3.78L235.84-0.51Q235.52-0.35 234.98-0.19Q234.44-0.03 233.78 0.09Q233.12 0.22 232.36 0.30Q231.61 0.38 230.85 0.38L230.85 0.38Q228.93 0.38 227.52-0.19Q226.10-0.76 225.17-1.74Q224.23-2.73 223.79-4.08Q223.34-5.43 223.34-6.99ZM227.47-8.53L232.79-8.53Q232.77-9.04 232.62-9.53Q232.47-10.02 232.16-10.39Q231.85-10.77 231.38-11.02Q230.90-11.26 230.20-11.26L230.20-11.26Q229.53-11.26 229.04-11.03Q228.55-10.80 228.23-10.42Q227.91-10.04 227.73-9.54Q227.56-9.04 227.47-8.53L227.47-8.53ZM243.86-2.89L243.86-2.89Q244.97-2.89 245.43-3.10Q245.89-3.32 245.89-3.94L245.89-3.94Q245.89-4.43 245.29-4.79Q244.70-5.16 243.49-5.62L243.49-5.62Q242.54-5.97 241.77-6.34Q241.00-6.72 240.46-7.25Q239.92-7.78 239.63-8.51Q239.33-9.23 239.33-10.26L239.33-10.26Q239.33-12.26 240.81-13.42Q242.30-14.58 244.89-14.58L244.89-14.58Q246.19-14.58 247.37-14.35Q248.56-14.12 249.26-13.85L249.26-13.85L248.56-10.72Q247.86-10.96 247.04-11.15Q246.21-11.34 245.19-11.34L245.19-11.34Q243.30-11.34 243.30-10.29L243.30-10.29Q243.30-10.04 243.38-9.86Q243.46-9.67 243.70-9.49Q243.94-9.31 244.36-9.11Q244.78-8.91 245.43-8.67L245.43-8.67Q246.75-8.18 247.62-7.71Q248.48-7.24 248.98-6.68Q249.48-6.13 249.68-5.45Q249.88-4.78 249.88-3.89L249.88-3.89Q249.88-1.78 248.31-0.70Q246.73 0.38 243.84 0.38L243.84 0.38Q241.95 0.38 240.69 0.05Q239.44-0.27 238.95-0.49L238.95-0.49L239.63-3.75Q240.65-3.35 241.73-3.12Q242.81-2.89 243.86-2.89ZM252.48-4.10L256.69-4.10Q256.74-3.46 256.76-3.19Q256.77-2.92 256.77-2.73L256.77-2.73Q256.77-1.92 256.62-1.01Q256.47-0.11 256.20 0.81Q255.93 1.73 255.53 2.65Q255.12 3.56 254.61 4.40L254.61 4.40L251.45 3.62Q252.07 1.84 252.31 0.27Q252.56-1.30 252.56-2.32L252.56-2.32Q252.56-2.48 252.54-2.74Q252.53-3.00 252.52-3.27Q252.50-3.54 252.49-3.78Q252.48-4.02 252.48-4.10L252.48-4.10Z"/><path d="M3.10 11.29L7.13 11.29Q7.61 12.18 8.25 13.49Q8.88 14.80 9.57 16.32Q10.26 17.85 10.94 19.44Q11.61 21.04 12.20 22.44L12.20 22.44Q12.80 21.04 13.47 19.44Q14.15 17.85 14.84 16.32Q15.53 14.80 16.16 13.49Q16.79 12.18 17.28 11.29L17.28 11.29L21.11 11.29Q21.38 13.15 21.61 15.46Q21.84 17.77 22.02 20.27Q22.19 22.76 22.34 25.27Q22.49 27.79 22.60 30L22.60 30L18.50 30Q18.41 27.27 18.28 24.06Q18.14 20.85 17.87 17.58L17.87 17.58Q17.39 18.71 16.79 20.09Q16.20 21.47 15.62 22.84Q15.04 24.22 14.50 25.48Q13.96 26.73 13.58 27.62L13.58 27.62L10.64 27.62Q10.26 26.73 9.72 25.48Q9.18 24.22 8.60 22.84Q8.02 21.47 7.42 20.09Q6.83 18.71 6.34 17.58L6.34 17.58Q6.08 20.85 5.94 24.06Q5.80 27.27 5.72 30L5.72 30L1.62 30Q1.73 27.79 1.88 25.27Q2.02 22.76 2.20 20.27Q2.38 17.77 2.61 15.46Q2.83 13.15 3.10 11.29L3.10 11.29ZM39.39 22.87L39.39 22.87Q39.39 24.55 38.91 25.94Q38.42 27.33 37.50 28.31Q36.59 29.30 35.30 29.84Q34.02 30.38 32.43 30.38L32.43 30.38Q30.86 30.38 29.58 29.84Q28.30 29.30 27.38 28.31Q26.46 27.33 25.95 25.94Q25.43 24.55 25.43 22.87L25.43 22.87Q25.43 21.20 25.96 19.82Q26.49 18.44 27.42 17.47Q28.35 16.50 29.63 15.96Q30.91 15.42 32.43 15.42L32.43 15.42Q33.97 15.42 35.25 15.96Q36.53 16.50 37.45 17.47Q38.37 18.44 38.88 19.82Q39.39 21.20 39.39 22.87ZM35.29 22.87L35.29 22.87Q35.29 21.01 34.55 19.94Q33.80 18.88 32.43 18.88L32.43 18.88Q31.05 18.88 30.29 19.94Q29.54 21.01 29.54 22.87L29.54 22.87Q29.54 24.73 30.29 25.83Q31.05 26.92 32.43 26.92L32.43 26.92Q33.80 26.92 34.55 25.83Q35.29 24.73 35.29 22.87ZM51.60 22.79L51.60 22.79Q51.60 18.90 48.74 18.90L48.74 18.90Q48.11 18.90 47.51 19.06Q46.90 19.23 46.52 19.47L46.52 19.47L46.52 26.79Q46.82 26.84 47.28 26.88Q47.74 26.92 48.28 26.92L48.28 26.92Q49.92 26.92 50.76 25.79Q51.60 24.65 51.60 22.79ZM55.70 22.90L55.70 22.90Q55.70 24.60 55.20 25.98Q54.70 27.35 53.76 28.33Q52.81 29.30 51.44 29.82Q50.06 30.35 48.30 30.35L48.30 30.35Q47.57 30.35 46.78 30.28Q45.98 30.22 45.21 30.11Q44.44 30 43.74 29.85Q43.04 29.70 42.50 29.54L42.50 29.54L42.50 9.70L46.52 9.05L46.52 16.12Q47.20 15.82 47.93 15.66Q48.65 15.50 49.49 15.50L49.49 15.50Q51.00 15.50 52.16 16.03Q53.33 16.55 54.11 17.53Q54.89 18.50 55.30 19.86Q55.70 21.23 55.70 22.90ZM62.83 15.80L62.83 30L58.81 30L58.81 15.80L62.83 15.80ZM63.21 11.69L63.21 11.69Q63.21 12.80 62.49 13.44Q61.78 14.07 60.80 14.07L60.80 14.07Q59.83 14.07 59.12 13.44Q58.40 12.80 58.40 11.69L58.40 11.69Q58.40 10.59 59.12 9.95Q59.83 9.32 60.80 9.32L60.80 9.32Q61.78 9.32 62.49 9.95Q63.21 10.59 63.21 11.69ZM72.85 26.95L72.28 30.27Q70.52 30.24 69.43 29.89Q68.34 29.54 67.70 28.91Q67.07 28.27 66.84 27.37Q66.61 26.46 66.61 25.33L66.61 25.33L66.61 9.70L70.63 9.05L70.63 24.52Q70.63 25.06 70.71 25.49Q70.79 25.92 71.02 26.22Q71.25 26.52 71.69 26.71Q72.12 26.89 72.85 26.95L72.85 26.95ZM74.47 23.01L74.47 23.01Q74.47 21.12 75.05 19.70Q75.63 18.28 76.57 17.34Q77.52 16.39 78.75 15.91Q79.97 15.42 81.27 15.42L81.27 15.42Q84.29 15.42 86.05 17.27Q87.80 19.12 87.80 22.71L87.80 22.71Q87.80 23.06 87.78 23.48Q87.75 23.90 87.72 24.22L87.72 24.22L78.60 24.22Q78.73 25.46 79.76 26.19Q80.78 26.92 82.51 26.92L82.51 26.92Q83.62 26.92 84.69 26.72Q85.75 26.52 86.43 26.22L86.43 26.22L86.97 29.49Q86.64 29.65 86.10 29.81Q85.56 29.97 84.90 30.09Q84.24 30.22 83.48 30.30Q82.73 30.38 81.97 30.38L81.97 30.38Q80.06 30.38 78.64 29.81Q77.22 29.24 76.29 28.26Q75.36 27.27 74.91 25.92Q74.47 24.57 74.47 23.01ZM78.60 21.47L83.92 21.47Q83.89 20.95 83.74 20.47Q83.59 19.98 83.28 19.61Q82.97 19.23 82.50 18.98Q82.03 18.74 81.32 18.74L81.32 18.74Q80.65 18.74 80.16 18.97Q79.68 19.20 79.35 19.58Q79.03 19.96 78.85 20.46Q78.68 20.95 78.60 21.47L78.60 21.47ZM101.87 14.75L101.87 26.57Q102.17 26.60 102.56 26.61Q102.95 26.63 103.49 26.63L103.49 26.63Q106.65 26.63 108.18 25.03Q109.70 23.44 109.70 20.63L109.70 20.63Q109.70 17.69 108.24 16.18Q106.79 14.66 103.63 14.66L103.63 14.66Q103.19 14.66 102.74 14.68Q102.28 14.69 101.87 14.75L101.87 14.75ZM114.05 20.63L114.05 20.63Q114.05 23.06 113.29 24.87Q112.54 26.68 111.15 27.87Q109.76 29.05 107.76 29.65Q105.76 30.24 103.28 30.24L103.28 30.24Q102.14 30.24 100.63 30.15Q99.12 30.05 97.66 29.76L97.66 29.76L97.66 11.53Q99.12 11.26 100.70 11.17Q102.28 11.07 103.41 11.07L103.41 11.07Q105.81 11.07 107.77 11.61Q109.73 12.15 111.13 13.31Q112.54 14.47 113.29 16.28Q114.05 18.09 114.05 20.63ZM116.61 23.01L116.61 23.01Q116.61 21.12 117.19 19.70Q117.77 18.28 118.72 17.34Q119.66 16.39 120.89 15.91Q122.12 15.42 123.42 15.42L123.42 15.42Q126.44 15.42 128.20 17.27Q129.95 19.12 129.95 22.71L129.95 22.71Q129.95 23.06 129.92 23.48Q129.90 23.90 129.87 24.22L129.87 24.22L120.74 24.22Q120.88 25.46 121.91 26.19Q122.93 26.92 124.66 26.92L124.66 26.92Q125.77 26.92 126.83 26.72Q127.90 26.52 128.57 26.22L128.57 26.22L129.11 29.49Q128.79 29.65 128.25 29.81Q127.71 29.97 127.05 30.09Q126.39 30.22 125.63 30.30Q124.88 30.38 124.12 30.38L124.12 30.38Q122.20 30.38 120.78 29.81Q119.37 29.24 118.44 28.26Q117.50 27.27 117.06 25.92Q116.61 24.57 116.61 23.01ZM120.74 21.47L126.06 21.47Q126.04 20.95 125.89 20.47Q125.74 19.98 125.43 19.61Q125.12 19.23 124.65 18.98Q124.17 18.74 123.47 18.74L123.47 18.74Q122.80 18.74 122.31 18.97Q121.82 19.20 121.50 19.58Q121.18 19.96 121.00 20.46Q120.83 20.95 120.74 21.47L120.74 21.47ZM140.26 30L136.92 30Q135.54 27.30 134.12 23.68Q132.70 20.06 131.44 15.80L131.44 15.80L135.70 15.80Q135.97 16.85 136.34 18.08Q136.70 19.31 137.09 20.56Q137.48 21.82 137.88 23.01Q138.27 24.20 138.65 25.17L138.65 25.17Q139.00 24.20 139.40 23.01Q139.81 21.82 140.20 20.56Q140.59 19.31 140.95 18.08Q141.32 16.85 141.59 15.80L141.59 15.80L145.75 15.80Q144.48 20.06 143.06 23.68Q141.64 27.30 140.26 30L140.26 30ZM145.99 25.90L150.20 25.90Q150.25 26.54 150.27 26.81Q150.28 27.08 150.28 27.27L150.28 27.27Q150.28 28.08 150.13 28.99Q149.98 29.89 149.72 30.81Q149.44 31.73 149.04 32.65Q148.63 33.56 148.12 34.40L148.12 34.40L144.96 33.62Q145.58 31.84 145.83 30.27Q146.07 28.70 146.07 27.68L146.07 27.68Q146.07 27.52 146.06 27.26Q146.04 27.00 146.03 26.73Q146.02 26.46 146.00 26.22Q145.99 25.98 145.99 25.90L145.99 25.90Z"/><path d="M9.48 60.38L9.48 60.38Q7.51 60.38 6.08 59.82Q4.64 59.27 3.71 58.29Q2.78 57.30 2.34 55.94Q1.89 54.57 1.89 52.93L1.89 52.93L1.89 41.29L6.10 41.29L6.10 52.58Q6.10 53.71 6.36 54.51Q6.62 55.30 7.06 55.80Q7.51 56.30 8.14 56.52Q8.78 56.73 9.53 56.73L9.53 56.73Q11.07 56.73 12.03 55.79Q12.99 54.84 12.99 52.58L12.99 52.58L12.99 41.29L17.20 41.29L17.20 52.93Q17.20 54.57 16.74 55.95Q16.28 57.33 15.34 58.31Q14.39 59.30 12.93 59.84Q11.47 60.38 9.48 60.38ZM21.25 60L21.25 41.29L25.46 41.29L25.46 60L21.25 60ZM39.83 38.86L30.81 65.00L26.68 65.00L35.75 38.86L39.83 38.86ZM48.63 60.38L48.63 60.38Q46.66 60.38 45.23 59.82Q43.79 59.27 42.86 58.29Q41.93 57.30 41.49 55.94Q41.04 54.57 41.04 52.93L41.04 52.93L41.04 41.29L45.25 41.29L45.25 52.58Q45.25 53.71 45.51 54.51Q45.77 55.30 46.21 55.80Q46.66 56.30 47.29 56.52Q47.92 56.73 48.68 56.73L48.68 56.73Q50.22 56.73 51.18 55.79Q52.14 54.84 52.14 52.58L52.14 52.58L52.14 41.29L56.35 41.29L56.35 52.93Q56.35 54.57 55.89 55.95Q55.43 57.33 54.49 58.31Q53.54 59.30 52.08 59.84Q50.63 60.38 48.63 60.38ZM76.19 60L71.14 60Q70.36 58.43 69.43 56.83Q68.50 55.22 67.28 53.55L67.28 53.55Q66.91 54.03 66.33 54.90Q65.75 55.76 65.16 56.73Q64.58 57.70 64.07 58.60Q63.56 59.49 63.31 60L63.31 60L58.51 60Q59.70 57.81 61.28 55.41Q62.86 53.01 64.80 50.31L64.80 50.31L58.78 41.29L63.88 41.29L67.53 47.12L71.09 41.29L75.90 41.29L69.96 50.36Q72.22 53.30 73.76 55.80Q75.30 58.30 76.19 60L76.19 60ZM82.97 57.87L82.97 57.87Q82.97 59.08 82.20 59.72Q81.43 60.35 80.46 60.35L80.46 60.35Q79.49 60.35 78.72 59.72Q77.95 59.08 77.95 57.87L77.95 57.87Q77.95 56.65 78.72 56.02Q79.49 55.38 80.46 55.38L80.46 55.38Q81.43 55.38 82.20 56.02Q82.97 56.65 82.97 57.87Z"/>
  
      </g>

      <g id="cursor">
        <path
          d="M453.383 343L448 317L471 331L459.745 333.5L453.383 343Z"
          fill="#373737"
          stroke="white"
          stroke-width="2"
        />
        <path
          d="M587 358C587 349.716 580.284 343 572 343H484.932C476.648 343 469.932 349.716 469.932 358V361C469.932 369.284 476.648 376 484.932 376H572C580.284 376 587 369.284 587 361V358Z"
          fill="#2563EB"
        />
        <path
          d="M482.933 365V355.545H489.082V356.981H484.645V359.548H488.763V360.984H484.645V363.564H489.119V365H482.933ZM490.755 365V357.909H492.352V359.114H492.436C492.583 358.708 492.828 358.391 493.17 358.163C493.511 357.932 493.919 357.817 494.393 357.817C494.873 357.817 495.278 357.934 495.607 358.168C495.939 358.398 496.173 358.714 496.309 359.114H496.383C496.54 358.72 496.804 358.406 497.177 358.172C497.552 357.935 497.997 357.817 498.511 357.817C499.163 357.817 499.696 358.023 500.108 358.435C500.521 358.848 500.727 359.449 500.727 360.24V365H499.051V360.499C499.051 360.059 498.934 359.737 498.7 359.534C498.466 359.328 498.18 359.225 497.841 359.225C497.438 359.225 497.123 359.351 496.895 359.603C496.67 359.853 496.558 360.177 496.558 360.577V365H494.919V360.43C494.919 360.063 494.808 359.771 494.587 359.553C494.368 359.334 494.082 359.225 493.728 359.225C493.488 359.225 493.27 359.286 493.073 359.409C492.876 359.529 492.719 359.7 492.602 359.922C492.485 360.14 492.426 360.396 492.426 360.688V365H490.755ZM502.422 365V357.909H504.019V359.114H504.103C504.25 358.708 504.495 358.391 504.837 358.163C505.178 357.932 505.586 357.817 506.06 357.817C506.54 357.817 506.945 357.934 507.274 358.168C507.606 358.398 507.84 358.714 507.976 359.114H508.05C508.207 358.72 508.471 358.406 508.844 358.172C509.219 357.935 509.664 357.817 510.178 357.817C510.83 357.817 511.363 358.023 511.775 358.435C512.188 358.848 512.394 359.449 512.394 360.24V365H510.718V360.499C510.718 360.059 510.601 359.737 510.367 359.534C510.133 359.328 509.847 359.225 509.508 359.225C509.105 359.225 508.79 359.351 508.562 359.603C508.337 359.853 508.225 360.177 508.225 360.577V365H506.586V360.43C506.586 360.063 506.475 359.771 506.254 359.553C506.035 359.334 505.749 359.225 505.395 359.225C505.155 359.225 504.937 359.286 504.74 359.409C504.543 359.529 504.386 359.7 504.269 359.922C504.152 360.14 504.093 360.396 504.093 360.688V365H502.422ZM516.13 365.143C515.68 365.143 515.276 365.063 514.915 364.903C514.558 364.74 514.275 364.5 514.066 364.183C513.86 363.866 513.757 363.475 513.757 363.01C513.757 362.61 513.831 362.279 513.978 362.018C514.126 361.756 514.328 361.547 514.583 361.39C514.839 361.233 515.126 361.114 515.446 361.034C515.77 360.951 516.103 360.891 516.448 360.854C516.864 360.811 517.201 360.773 517.459 360.739C517.718 360.702 517.905 360.647 518.022 360.573C518.142 360.496 518.202 360.377 518.202 360.217V360.19C518.202 359.842 518.099 359.573 517.893 359.382C517.687 359.191 517.39 359.096 517.002 359.096C516.593 359.096 516.268 359.185 516.028 359.363C515.791 359.542 515.631 359.753 515.548 359.996L513.988 359.774C514.111 359.343 514.314 358.983 514.597 358.694C514.88 358.402 515.226 358.183 515.636 358.038C516.045 357.891 516.497 357.817 516.993 357.817C517.335 357.817 517.675 357.857 518.013 357.937C518.352 358.017 518.661 358.149 518.941 358.334C519.221 358.515 519.446 358.763 519.615 359.077C519.787 359.391 519.874 359.783 519.874 360.254V365H518.267V364.026H518.212C518.11 364.223 517.967 364.408 517.782 364.58C517.601 364.749 517.371 364.886 517.094 364.991C516.821 365.092 516.499 365.143 516.13 365.143ZM516.564 363.915C516.899 363.915 517.19 363.849 517.436 363.717C517.682 363.581 517.872 363.403 518.004 363.181C518.139 362.96 518.207 362.718 518.207 362.456V361.621C518.155 361.664 518.065 361.704 517.939 361.741C517.816 361.778 517.678 361.81 517.524 361.838C517.37 361.865 517.218 361.89 517.067 361.912C516.916 361.933 516.785 361.952 516.674 361.967C516.425 362.001 516.202 362.056 516.005 362.133C515.808 362.21 515.653 362.318 515.539 362.456C515.425 362.592 515.368 362.767 515.368 362.983C515.368 363.29 515.48 363.523 515.705 363.68C515.93 363.837 516.216 363.915 516.564 363.915ZM523.225 360.845V365H521.554V357.909H523.151V359.114H523.234C523.397 358.717 523.658 358.402 524.015 358.168C524.375 357.934 524.819 357.817 525.349 357.817C525.838 357.817 526.264 357.921 526.627 358.131C526.994 358.34 527.277 358.643 527.477 359.04C527.68 359.437 527.78 359.919 527.777 360.485V365H526.106V360.744C526.106 360.27 525.983 359.899 525.737 359.631C525.493 359.363 525.156 359.229 524.725 359.229C524.433 359.229 524.173 359.294 523.945 359.423C523.721 359.549 523.544 359.733 523.414 359.973C523.288 360.213 523.225 360.504 523.225 360.845ZM533.995 362.018V357.909H535.667V365H534.046V363.74H533.972C533.812 364.137 533.549 364.461 533.183 364.714C532.82 364.966 532.372 365.092 531.839 365.092C531.375 365.092 530.964 364.989 530.607 364.783C530.253 364.574 529.976 364.271 529.776 363.874C529.576 363.473 529.476 362.99 529.476 362.424V357.909H531.147V362.165C531.147 362.615 531.27 362.972 531.516 363.237C531.763 363.501 532.086 363.634 532.486 363.634C532.732 363.634 532.971 363.574 533.201 363.453C533.432 363.333 533.621 363.155 533.769 362.918C533.92 362.678 533.995 362.378 533.995 362.018ZM540.524 365.138C539.813 365.138 539.199 364.991 538.682 364.695C538.168 364.397 537.773 363.975 537.496 363.43C537.219 362.883 537.08 362.238 537.08 361.496C537.08 360.767 537.219 360.127 537.496 359.576C537.776 359.022 538.167 358.591 538.668 358.283C539.17 357.972 539.759 357.817 540.437 357.817C540.874 357.817 541.286 357.888 541.674 358.029C542.065 358.168 542.409 358.383 542.708 358.675C543.009 358.968 543.246 359.34 543.419 359.793C543.591 360.242 543.677 360.777 543.677 361.399V361.912H537.865V360.785H542.075C542.072 360.465 542.003 360.18 541.868 359.931C541.732 359.679 541.543 359.48 541.3 359.336C541.06 359.191 540.78 359.119 540.46 359.119C540.118 359.119 539.818 359.202 539.559 359.368C539.301 359.531 539.099 359.746 538.955 360.014C538.813 360.279 538.741 360.57 538.738 360.887V361.87C538.738 362.282 538.813 362.636 538.964 362.932C539.115 363.224 539.325 363.449 539.596 363.606C539.867 363.76 540.184 363.837 540.547 363.837C540.79 363.837 541.011 363.803 541.207 363.735C541.404 363.664 541.575 363.561 541.72 363.426C541.865 363.29 541.974 363.123 542.048 362.923L543.608 363.098C543.51 363.51 543.322 363.871 543.045 364.178C542.771 364.483 542.42 364.72 541.992 364.889C541.564 365.055 541.075 365.138 540.524 365.138ZM546.762 355.545V365H545.091V355.545H546.762ZM551.779 365V355.545H557.928V356.981H553.492V359.548H557.61V360.984H553.492V363.564H557.965V365H551.779ZM559.509 365V363.938L563.166 359.354V359.294H559.63V357.909H565.211V359.049L561.73 363.555V363.615H565.331V365H559.509ZM569.838 365.138C569.127 365.138 568.513 364.991 567.996 364.695C567.482 364.397 567.086 363.975 566.809 363.43C566.532 362.883 566.394 362.238 566.394 361.496C566.394 360.767 566.532 360.127 566.809 359.576C567.089 359.022 567.48 358.591 567.982 358.283C568.484 357.972 569.073 357.817 569.75 357.817C570.187 357.817 570.599 357.888 570.987 358.029C571.378 358.168 571.723 358.383 572.021 358.675C572.323 358.968 572.56 359.34 572.732 359.793C572.905 360.242 572.991 360.777 572.991 361.399V361.912H567.179V360.785H571.389C571.386 360.465 571.317 360.18 571.181 359.931C571.046 359.679 570.856 359.48 570.613 359.336C570.373 359.191 570.093 359.119 569.773 359.119C569.431 359.119 569.131 359.202 568.873 359.368C568.614 359.531 568.413 359.746 568.268 360.014C568.127 360.279 568.054 360.57 568.051 360.887V361.87C568.051 362.282 568.127 362.636 568.277 362.932C568.428 363.224 568.639 363.449 568.91 363.606C569.181 363.76 569.498 363.837 569.861 363.837C570.104 363.837 570.324 363.803 570.521 363.735C570.718 363.664 570.889 363.561 571.033 363.426C571.178 363.29 571.287 363.123 571.361 362.923L572.922 363.098C572.823 363.51 572.635 363.871 572.358 364.178C572.084 364.483 571.734 364.72 571.306 364.889C570.878 365.055 570.389 365.138 569.838 365.138Z"
          fill="white"
        />
      </g>
    </svg>