<?xml version="1.0" standalone="no"?>
<!DOCTYPE svg PUBLIC "-//W3C//DTD SVG 20010904//EN"
 "http://www.w3.org/TR/2001/REC-SVG-20010904/DTD/svg10.dtd">
<svg version="1.0" xmlns="http://www.w3.org/2000/svg"
 width="30" height="30" viewBox="0 0 512.000000 512.000000"
 preserveAspectRatio="xMidYMid meet">

<g transform="translate(0.000000,512.000000) scale(0.100000,-0.100000)"
 fill="#FFFFFF" stroke="none">
<path d="M2240 3830 c-830 -55 -1550 -300 -1930 -657 -112 -106 -179 -191
-231 -298 -55 -114 -73 -190 -73 -315 0 -207 74 -375 244 -554 350 -368 988
-614 1825 -702 200 -21 728 -24 920 -5 860 85 1510 328 1866 698 179 186 253
352 253 563 0 125 -18 201 -73 315 -239 487 -1020 851 -2031 945 -159 15 -607
20 -770 10z m595 -210 c821 -49 1522 -285 1864 -631 277 -280 277 -579 0 -858
-587 -589 -2133 -815 -3333 -486 -116 32 -391 127 -404 140 -5 5 37 191 70
311 l8 31 233 6 c259 6 305 15 422 75 99 51 212 165 258 263 54 113 80 226 75
331 -4 75 -9 96 -41 161 -60 121 -168 203 -299 227 -34 7 -161 10 -309 8
l-251 -3 -26 -30 c-23 -26 -47 -112 -181 -650 -85 -341 -156 -622 -157 -624
-12 -14 -192 103 -283 184 -205 183 -293 369 -262 557 73 446 781 838 1731
957 298 38 590 48 885 31z m-1154 -645 c85 -30 139 -107 139 -199 0 -62 -31
-172 -65 -231 -33 -58 -116 -132 -183 -163 -55 -26 -64 -27 -264 -30 -146 -2
-208 0 -208 8 0 15 150 612 156 622 3 4 90 8 193 8 144 0 199 -4 232 -15z"/>
<path d="M2411 3507 c-52 -27 -56 -42 -165 -644 -59 -320 -106 -602 -106 -626
0 -91 106 -135 171 -71 27 28 31 47 100 427 l73 397 200 0 c171 0 206 -3 236
-18 43 -21 80 -75 80 -116 0 -17 -28 -166 -62 -330 l-62 -299 20 -36 c33 -63
122 -72 169 -18 32 36 149 618 142 703 -8 110 -73 218 -163 270 -76 45 -133
54 -337 54 -175 0 -188 1 -183 18 3 9 12 59 22 110 19 108 11 142 -40 173 -36
22 -61 24 -95 6z"/>
<path d="M3574 3181 c-17 -10 -36 -32 -42 -47 -6 -16 -84 -319 -172 -673 -110
-441 -159 -653 -155 -672 4 -16 20 -40 37 -54 54 -46 134 -25 160 42 9 21 32
108 53 194 l39 156 235 6 c262 6 303 13 423 73 93 47 212 163 255 249 122 241
113 455 -24 605 -28 31 -73 68 -100 83 -93 50 -144 57 -423 57 -232 0 -258 -2
-286 -19z m561 -202 c25 -7 58 -29 86 -58 64 -64 76 -117 49 -230 -11 -44 -31
-103 -44 -130 -35 -69 -110 -139 -186 -175 l-65 -31 -213 -3 c-202 -3 -213 -2
-208 15 3 10 35 137 71 283 36 146 70 282 76 303 l10 37 192 0 c109 0 209 -5
232 -11z"/>
</g>
</svg>
