<?xml version="1.0" encoding="UTF-8" standalone="no" ?>
<!DOCTYPE svg PUBLIC "-//W3C//DTD SVG 1.1//EN" "http://www.w3.org/Graphics/SVG/1.1/DTD/svg11.dtd">
<svg xmlns="http://www.w3.org/2000/svg" xmlns:xlink="http://www.w3.org/1999/xlink" version="1.1" width="1080" height="1080" viewBox="159.33 28.67 1080 1080" xml:space="preserve">
<desc>Created with Fabric.js 5.2.4</desc>
<defs>
</defs>
<rect x="0" y="0" width="100%" height="100%" fill="transparent"></rect>
<g transform="matrix(1 0 0 1 540 540)" id="876c4db3-58d0-4887-b247-67e0734b48d2"  >
<rect style="stroke: none; stroke-width: 1; stroke-dasharray: none; stroke-linecap: butt; stroke-dashoffset: 0; stroke-linejoin: miter; stroke-miterlimit: 4; fill: rgb(0,0,0); fill-rule: nonzero; opacity: 1; visibility: hidden;" vector-effect="non-scaling-stroke"  x="-540" y="-540" rx="0" ry="0" width="1080" height="1080" />
</g>
<g transform="matrix(Infinity NaN NaN Infinity 0 0)" id="393d930c-b08b-400a-ba07-101a5dd421a0"  >
</g>
<g transform="matrix(0.73 0 0 0.73 702.13 487.8)" style="" id="3eed1fa5-1836-4a2f-9034-f997e207f824"  >
		<text xml:space="preserve" font-family="Raleway" font-size="105" font-style="normal" font-weight="900" style="stroke: none; stroke-width: 1; stroke-dasharray: none; stroke-linecap: butt; stroke-dashoffset: 0; stroke-linejoin: miter; stroke-miterlimit: 4; fill: rgb(249,249,249); fill-rule: nonzero; opacity: 1; white-space: pre;" ><tspan x="-432" y="-85.67" >Full Stack Dev,</tspan><tspan x="-432" y="32.98" >Mobile Dev,</tspan><tspan x="-432" y="151.63" >UI/UX Design</tspan></text>
</g>
<g transform="matrix(1.07 0 0 1.07 814.56 668.77)"  >
<path style="stroke: rgb(255,255,255); stroke-width: 2; stroke-dasharray: none; stroke-linecap: butt; stroke-dashoffset: 0; stroke-linejoin: miter; stroke-miterlimit: 4; fill: rgb(55,55,55); fill-rule: nonzero; opacity: 1;" vector-effect="non-scaling-stroke"  transform=" translate(-459.5, -330)" d="M 453.383 343 L 448 317 L 471 331 L 459.745 333.5 L 453.383 343 Z" stroke-linecap="round" />
</g>
<g transform="matrix(1.07 0 0 1.07 875.93 705.15)"  >
<path style="stroke: none; stroke-width: 1; stroke-dasharray: none; stroke-linecap: butt; stroke-dashoffset: 0; stroke-linejoin: miter; stroke-miterlimit: 4; fill: rgb(37,99,235); fill-rule: nonzero; opacity: 1;" vector-effect="non-scaling-stroke"  transform=" translate(-528.47, -359.5)" d="M 587 358 C 587 349.716 580.284 343 572 343 L 484.932 343 C 476.648 343 469.932 349.716 469.932 358 L 469.932 361 C 469.932 369.284 476.648 376 484.932 376 L 572 376 C 580.284 376 587 369.284 587 361 L 587 358 Z" stroke-linecap="round" />
</g>
<g transform="matrix(0.18 0 0 0.18 880.33 703.82)" style="" id="a0634d35-e65b-4211-b78e-2d2d4ecea9f8"  >
		<text xml:space="preserve" font-family="Raleway" font-size="105" font-style="normal" font-weight="900" style="stroke: none; stroke-width: 1; stroke-dasharray: none; stroke-linecap: butt; stroke-dashoffset: 0; stroke-linejoin: miter; stroke-miterlimit: 4; fill: rgb(249,249,249); fill-rule: nonzero; opacity: 1; white-space: pre;" ><tspan x="-295.84" y="32.98" >King Jethro</tspan></text>
</g>
</svg>